<?xml version="1.0" encoding="utf-8"?>
<!-- Generator: Adobe Illustrator 21.0.2, SVG Export Plug-In . SVG Version: 6.00 Build 0)  -->
<svg version="1.1" xmlns="http://www.w3.org/2000/svg" xmlns:xlink="http://www.w3.org/1999/xlink" x="0px" y="0px"
	 viewBox="0 0 720 503.999" enable-background="new 0 0 720 503.999" xml:space="preserve">
<g id="bg">
	<rect fill="#FF8B78" width="720" height="503.999"/>
</g>
<g id="moon">
	<circle fill="#F8EEF6" cx="274.196" cy="123.732" r="67.883"/>
	<circle fill="#F8DDF2" cx="274.196" cy="127.312" r="67.883"/>
</g>
<g id="Layer_1">
	<g>
		<g>
			<line fill="none" stroke="#F8DDF2" stroke-miterlimit="10" x1="531.364" y1="180.365" x2="512.056" y2="180.365"/>
			<line fill="none" stroke="#F8DDF2" stroke-miterlimit="10" x1="510.485" y1="180.365" x2="508.384" y2="180.365"/>
			<line fill="none" stroke="#F8DDF2" stroke-miterlimit="10" x1="506.813" y1="180.365" x2="505.763" y2="180.365"/>
			<line fill="none" stroke="#F8DDF2" stroke-miterlimit="10" x1="537.78" y1="180.365" x2="535.679" y2="180.365"/>
			<line fill="none" stroke="#F8DDF2" stroke-miterlimit="10" x1="534.109" y1="180.365" x2="533.058" y2="180.365"/>
			<line fill="none" stroke="#F8DDF2" stroke-miterlimit="10" x1="531.364" y1="177.807" x2="509.435" y2="177.807"/>
		</g>
		<g>
			<line fill="none" stroke="#F8DDF2" stroke-miterlimit="10" x1="490.289" y1="46.449" x2="470.981" y2="46.449"/>
			<line fill="none" stroke="#F8DDF2" stroke-miterlimit="10" x1="469.41" y1="46.449" x2="467.309" y2="46.449"/>
			<line fill="none" stroke="#F8DDF2" stroke-miterlimit="10" x1="465.738" y1="46.449" x2="464.687" y2="46.449"/>
			<line fill="none" stroke="#F8DDF2" stroke-miterlimit="10" x1="496.705" y1="46.449" x2="494.604" y2="46.449"/>
			<line fill="none" stroke="#F8DDF2" stroke-miterlimit="10" x1="493.033" y1="46.449" x2="491.983" y2="46.449"/>
			<line fill="none" stroke="#F8DDF2" stroke-miterlimit="10" x1="490.289" y1="43.891" x2="468.359" y2="43.891"/>
		</g>
		<g>
			<line fill="none" stroke="#F8DDF2" stroke-miterlimit="10" x1="515.241" y1="168.651" x2="518.537" y2="171.948"/>
			<line fill="none" stroke="#F8DDF2" stroke-miterlimit="10" x1="518.537" y1="168.651" x2="515.241" y2="171.948"/>
		</g>
		<g>
			<line fill="none" stroke="#F8DDF2" stroke-miterlimit="10" x1="456.832" y1="43.891" x2="460.129" y2="47.188"/>
			<line fill="none" stroke="#F8DDF2" stroke-miterlimit="10" x1="460.129" y1="43.891" x2="456.832" y2="47.188"/>
		</g>
		<g>
			<line fill="none" stroke="#F8DDF2" stroke-miterlimit="10" x1="620.864" y1="176.157" x2="617.568" y2="172.86"/>
			<line fill="none" stroke="#F8DDF2" stroke-miterlimit="10" x1="617.568" y1="176.157" x2="620.864" y2="172.86"/>
		</g>
		<g>
			<line fill="none" stroke="#F8DDF2" stroke-miterlimit="10" x1="171.119" y1="75.372" x2="151.811" y2="75.372"/>
			<line fill="none" stroke="#F8DDF2" stroke-miterlimit="10" x1="177.536" y1="75.372" x2="175.434" y2="75.372"/>
			<line fill="none" stroke="#F8DDF2" stroke-miterlimit="10" x1="173.864" y1="75.372" x2="172.813" y2="75.372"/>
			<line fill="none" stroke="#F8DDF2" stroke-miterlimit="10" x1="171.119" y1="72.814" x2="149.19" y2="72.814"/>
		</g>
		<g>
			<line fill="none" stroke="#F8DDF2" stroke-miterlimit="10" x1="137.662" y1="72.814" x2="140.959" y2="76.111"/>
			<line fill="none" stroke="#F8DDF2" stroke-miterlimit="10" x1="140.959" y1="72.814" x2="137.662" y2="76.111"/>
		</g>
		<line fill="none" stroke="#F8DDF2" stroke-miterlimit="10" x1="397.834" y1="38.624" x2="378.526" y2="38.624"/>
		<line fill="none" stroke="#F8DDF2" stroke-miterlimit="10" x1="404.25" y1="38.624" x2="402.149" y2="38.624"/>
		<line fill="none" stroke="#F8DDF2" stroke-miterlimit="10" x1="400.578" y1="38.624" x2="399.528" y2="38.624"/>
		<line fill="none" stroke="#F8DDF2" stroke-miterlimit="10" x1="397.834" y1="36.066" x2="375.904" y2="36.066"/>
		<g>
			<line fill="none" stroke="#F8DDF2" stroke-miterlimit="10" x1="281.782" y1="24.597" x2="285.078" y2="27.893"/>
			<line fill="none" stroke="#F8DDF2" stroke-miterlimit="10" x1="285.078" y1="24.597" x2="281.782" y2="27.893"/>
		</g>
		<circle fill="none" stroke="#F8DDF2" stroke-miterlimit="10" cx="171.119" cy="49.253" r="1.658"/>
		<circle fill="none" stroke="#F8DDF2" stroke-miterlimit="10" cx="183.659" cy="205.228" r="1.658"/>
		<g>
			<line fill="none" stroke="#F8DDF2" stroke-miterlimit="10" x1="35.899" y1="44.298" x2="39.196" y2="47.595"/>
			<line fill="none" stroke="#F8DDF2" stroke-miterlimit="10" x1="39.196" y1="44.298" x2="35.899" y2="47.595"/>
		</g>
		<g>
			<line fill="none" stroke="#F8DDF2" stroke-miterlimit="10" x1="165.551" y1="203.579" x2="168.848" y2="206.876"/>
			<line fill="none" stroke="#F8DDF2" stroke-miterlimit="10" x1="168.848" y1="203.579" x2="165.551" y2="206.876"/>
		</g>
		<circle fill="none" stroke="#F8DDF2" stroke-miterlimit="10" cx="37.548" cy="55.584" r="1.658"/>
		<g>
			<line fill="none" stroke="#F8DDF2" stroke-miterlimit="10" x1="105.099" y1="74.192" x2="105.099" y2="76.293"/>
			<line fill="none" stroke="#F8DDF2" stroke-miterlimit="10" x1="105.099" y1="77.864" x2="105.099" y2="78.915"/>
		</g>
		<circle fill="none" stroke="#F8DDF2" stroke-miterlimit="10" cx="95.653" cy="69.217" r="1.658"/>
		<g>
			<line fill="none" stroke="#F8DDF2" stroke-miterlimit="10" x1="598.668" y1="118.312" x2="579.359" y2="118.312"/>
			<line fill="none" stroke="#F8DDF2" stroke-miterlimit="10" x1="605.084" y1="118.312" x2="602.983" y2="118.312"/>
			<line fill="none" stroke="#F8DDF2" stroke-miterlimit="10" x1="601.412" y1="118.312" x2="600.362" y2="118.312"/>
			<line fill="none" stroke="#F8DDF2" stroke-miterlimit="10" x1="598.668" y1="115.754" x2="576.738" y2="115.754"/>
		</g>
		<g>
			<line fill="none" stroke="#F8DDF2" stroke-miterlimit="10" x1="129.236" y1="11.974" x2="109.927" y2="11.974"/>
			<line fill="none" stroke="#F8DDF2" stroke-miterlimit="10" x1="135.652" y1="11.974" x2="133.551" y2="11.974"/>
			<line fill="none" stroke="#F8DDF2" stroke-miterlimit="10" x1="131.98" y1="11.974" x2="130.929" y2="11.974"/>
			<g>
				<line fill="none" stroke="#F8DDF2" stroke-miterlimit="10" x1="567.696" y1="24.401" x2="570.993" y2="27.698"/>
				<line fill="none" stroke="#F8DDF2" stroke-miterlimit="10" x1="570.993" y1="24.401" x2="567.696" y2="27.698"/>
			</g>
			<circle fill="none" stroke="#F8DDF2" stroke-miterlimit="10" cx="569.344" cy="35.687" r="1.658"/>
			<line fill="none" stroke="#F8DDF2" stroke-miterlimit="10" x1="667.322" y1="57.956" x2="648.014" y2="57.956"/>
			<line fill="none" stroke="#F8DDF2" stroke-miterlimit="10" x1="673.738" y1="57.956" x2="671.637" y2="57.956"/>
			<line fill="none" stroke="#F8DDF2" stroke-miterlimit="10" x1="670.066" y1="57.956" x2="669.016" y2="57.956"/>
			<line fill="none" stroke="#F8DDF2" stroke-miterlimit="10" x1="45.304" y1="114.882" x2="23.375" y2="114.882"/>
		</g>
		<g>
			<line fill="none" stroke="#F8DDF2" stroke-miterlimit="10" x1="565.211" y1="115.754" x2="568.508" y2="119.051"/>
			<line fill="none" stroke="#F8DDF2" stroke-miterlimit="10" x1="568.508" y1="115.754" x2="565.211" y2="119.051"/>
		</g>
		<circle fill="none" stroke="#F8DDF2" stroke-miterlimit="10" cx="598.668" cy="92.193" r="1.658"/>
		<g>
			<line fill="none" stroke="#F8DDF2" stroke-miterlimit="10" x1="532.647" y1="117.132" x2="532.647" y2="119.233"/>
			<line fill="none" stroke="#F8DDF2" stroke-miterlimit="10" x1="532.647" y1="120.804" x2="532.647" y2="121.854"/>
		</g>
		<circle fill="none" stroke="#F8DDF2" stroke-miterlimit="10" cx="523.201" cy="112.156" r="1.658"/>
	</g>
	<g>
		<path fill="#D34A75" d="M720,177.79c-19.849,6.115-33.483,28.185-53.236,37.854c-22.349,10.94-49.85,4.696-73.048,13.731
			c-22.299,8.685-37.059,29.975-57.783,41.899c-25.235,14.519-56.204,13.656-85.344,12.373c-29.93-1.317-59.859-2.634-89.789-3.951
			c-22.117-0.973-45.18-2.205-64.433-13.052c-20.344-11.462-35.687-33.207-58.835-36.564c-22.58-3.274-45.492,12.521-67.471,6.434
			c-16.78-4.648-27.366-20.43-39.355-32.976C97.873,169.179,45.376,156.026,0,170.252v201.573c1.496,1.238,2.242,2.432,3.851,3.562
			c13.975,9.813,30.873,14.494,47.495,18.556c152.742,37.324,312.399,36.659,469.214,24.376
			c59.807-4.685,119.985-11.127,177.132-29.249c7.694-2.44,14.933-3.454,22.304-6.855L720,177.79z"/>
	</g>
	<g>
		<g>
			<path fill="#D34A75" d="M13.913,173.48c2.852-12.68,7.191-25.024,12.898-36.7c5.396,10.398,2.193,23.328,6.007,34.405
				c4.902-5.857,8.404-12.876,10.137-20.314c1.89,1.063,2.514,3.437,2.961,5.559c1.138,5.407,2.277,10.815,3.415,16.222
				c2.605-5.93,5.21-11.861,7.815-17.791c2.405,6.899,3.884,14.121,4.384,21.411"/>
		</g>
		<g>
			<path fill="#D34A75" d="M104.533,183.816c2.19-5.125,4.381-10.251,6.571-15.376c0.864,8.122,1.074,16.313,0.629,24.469
				c1.295-5.194,3.547-10.148,6.611-14.538c1.019,6.796,2.038,13.593,3.056,20.389c1.651-2.869,3.302-5.739,4.953-8.608
				c-0.159,6.118,0.54,12.257,2.071,18.182c1.813-2.947,3.627-5.894,5.44-8.841c1.738,7.426,3.048,14.951,3.921,22.528"/>
		</g>
		<g>
			<path fill="#D34A75" d="M206.824,235.992c0.294-5.896,1.186-11.763,2.657-17.48c0.424,6.902,1.8,13.745,4.077,20.274
				c0.968-7.004,2.512-13.929,4.611-20.681c1.023,6.101,2.046,12.202,3.069,18.303c1.84-6.926,3.68-13.853,5.52-20.779
				c1.326,9.437,2.78,18.856,4.36,28.254c2.544-7.05,5.089-14.1,7.633-21.15c0.595,4.351,1.365,8.679,2.307,12.968
				c2.336-2.007,3.92-4.87,4.378-7.916c0.773,3.486,1.546,6.971,2.319,10.457c2.044-3.478,4.088-6.955,6.132-10.433
				c1.13,3.547,1.982,7.183,2.546,10.862c0.598-8.032,1.804-16.018,3.604-23.868c1.235,10.258,2.471,20.517,3.706,30.775
				c1.262-3.726,2.524-7.453,3.786-11.179c-0.12,4.571,0.793,9.166,2.652,13.344c0.888-1.511,1.775-3.022,2.663-4.533
				c1.598,4.536,2,9.487,1.155,14.221"/>
		</g>
		<g>
			<path fill="#D34A75" d="M208.676,238.906c-0.825-6.444-3.031-12.708-6.427-18.246c-1.035,7.858-1.273,15.822-0.709,23.728"/>
		</g>
		<g>
			<path fill="#D34A75" d="M345.9,282.584c2.684-6.335,5.367-12.671,8.051-19.006c1.079,6.349,2.158,12.697,3.237,19.046
				c2.365-4.395,4.73-8.79,7.095-13.185c-0.04,3.784,0.845,7.574,2.558,10.948c2.44-3.954,4.376-8.22,5.746-12.66
				c1.73,7.466,3.459,14.931,5.189,22.397"/>
		</g>
		<g>
			<path fill="#D34A75" d="M606.379,229.463c0.684-5.057,2.739-9.921,5.887-13.937c0.893,4.828,1.936,9.629,3.128,14.392
				c3.436-5.311,6.07-11.141,7.784-17.231c4.238,2.125-0.395,10.142,3.414,12.964c2.168-5.807,4.747-11.46,7.711-16.904
				c0.895,8.038,1.79,16.076,2.686,24.115c3.729-12.02,7.458-24.04,11.187-36.059c0.407,10.888,0.814,21.775,1.221,32.663"/>
		</g>
		<g>
			<path fill="#D34A75" d="M687.757,205.228c1.416-9.478,3.751-18.818,6.961-27.848c-0.542,7.537-1.08,15.173,0.303,22.602
				c4.429-10.657,8.099-21.629,10.973-32.805c0.285,8.966-0.277,17.959-1.678,26.819"/>
		</g>
	</g>
</g>
<g id="Layer_3">
	<g>
		<path fill="#9B2D81" d="M707.748,335.213c-4.572-7.563-13.951-10.399-22.453-12.81c-21.583-6.123-42.844-13.379-63.667-21.729
			c-11.871-4.76-23.88-10.059-33.078-18.947c-12.702-12.274-18.664-30.028-30.354-43.27c-21.312-24.141-58.828-28.735-89.217-18.082
			c-30.39,10.653-54.726,33.804-75.375,58.514c-12.96,15.509-24.982,31.997-40.243,45.248s-34.556,23.208-54.756,22.549
			c-25.542-0.834-47.231-17.906-70.834-27.704c-54.851-22.77-124.456-1.365-157.035,48.291l-10.28,25.5
			c-0.847,18.393,10.482,35.698,25.346,46.566c14.864,10.868,32.907,16.35,50.717,21.025
			c168.905,44.331,347.98,32.029,519.476-0.885c12.097-2.322,24.939-5.14,33.615-13.884c8.27-8.335,11.159-20.478,13.315-32.02
			c3.602-19.28,6.139-38.759,7.596-58.318C711.031,348.416,711.297,341.084,707.748,335.213z"/>
	</g>
	<g>
		<g>
			<path fill="#9B2D81" d="M496.876,183.005c-1.563,6.903-3.006,13.643-5.462,20.28c0.659,0.536,1.613,0.423,2.45,0.282
				c0.508-0.086,1.016-0.171,1.524-0.257c0.174,4.343,0.347,8.685,0.521,13.028c0.006,0.157,0.024,0.337,0.15,0.43
				c0.124,0.092,0.297,0.058,0.447,0.021c0.329-0.082,0.658-0.164,0.987-0.246c0.122-0.03,0.251-0.065,0.335-0.159
				c0.12-0.134,0.106-0.337,0.084-0.516c-0.512-4.26-0.801-8.545-0.883-12.835c0.962-0.162,1.923-0.324,2.885-0.486
				c0.241-0.041,0.512-0.1,0.64-0.308c0.098-0.159,0.084-0.36,0.066-0.546C499.996,195.36,498.74,189.09,496.876,183.005z"/>
		</g>
		<g>
			<path fill="#9B2D81" d="M482.455,186.718c-1.443-5.96-2.679-11.97-3.705-18.016c-3.901,12.158-9.235,23.041-14.6,34.628
				c3.543,0.038,7.087-0.064,10.623-0.29c-0.119,5.801-0.238,11.602-0.357,17.403c1.09-0.284,2.181-0.568,3.271-0.852
				c0.629-5.585,0.879-11.211,0.765-16.83c3.079-0.277,6.148-0.65,9.203-1.126C485.115,197.003,483.697,191.851,482.455,186.718z"/>
		</g>
		<g>
			<path fill="#9B2D81" d="M426.076,230.96c-0.516-2.132-0.958-4.282-1.326-6.445c-1.396,4.349-3.304,8.242-5.223,12.388
				c1.267,0.014,2.535-0.023,3.8-0.104c-0.043,2.075-0.085,9.822-0.128,11.898c0.39-0.102,0.78-0.203,1.17-0.305
				c0.225-1.998,0.314-9.682,0.273-11.693c1.101-0.099,2.2-0.232,3.292-0.403C427.028,234.64,426.521,232.797,426.076,230.96z"/>
		</g>
		<g>
			<path fill="#9B2D81" d="M443.536,203.05l-0.94,1.108c-3.62,5.782-6.38,12.102-8.162,18.688l1.498-0.622
				c1.238,0.224,2.496,0.32,3.754,0.31c-0.423,4.331-0.846,8.663-1.269,12.994c-0.227,2.327-0.454,4.654-0.788,6.968
				c0.812-0.041,1.624-0.082,2.436-0.123c0.636-6.662,1.272-13.323,1.908-19.985c1.742-0.21,3.458-0.633,5.088-1.283
				c0.133-0.053,0.276-0.117,0.343-0.244c0.068-0.129,0.038-0.285,0.006-0.427C446.119,214.64,444.828,208.845,443.536,203.05z"/>
		</g>
		<g>
			<path fill="#9B2D81" d="M579.411,256.071c-0.908-1.657-1.415-3.5-1.86-5.336c-0.516-2.132-0.958-4.282-1.325-6.445
				c-1.396,4.349-3.304,8.242-5.223,12.388c1.267,0.014,2.535-0.023,3.8-0.104c-0.043,2.075-0.085,9.822-0.128,11.898
				c0.39-0.102,0.78-0.203,1.17-0.305c0.225-1.998,0.314-9.682,0.274-11.693C577.22,256.374,578.319,256.241,579.411,256.071z"/>
		</g>
		<g>
			<path fill="#9B2D81" d="M571.038,229.55c-1.291-5.794-2.582-11.589-3.874-17.384l-0.94,1.108
				c-3.62,5.782-6.38,12.102-8.162,18.688l1.498-0.622c1.238,0.225,2.496,0.32,3.754,0.31c-0.423,4.331-0.846,8.663-1.269,12.994
				c-0.227,2.327-0.455,4.654-0.788,6.968c0.812-0.041,1.624-0.082,2.436-0.123c0.636-6.662,1.272-13.323,1.908-19.985
				c1.742-0.21,3.458-0.633,5.088-1.283c0.133-0.053,0.276-0.117,0.343-0.244C571.1,229.848,571.07,229.692,571.038,229.55z"/>
		</g>
		<g>
			<path fill="#9B2D81" d="M522.664,197.323c-1.574,3.81-3.388,7.521-5.428,11.103c1.067,0.323,2.153,0.647,3.247,0.895
				c-0.366,3.171-0.732,6.342-1.099,9.514c-0.006,0.049-0.009,0.104,0.023,0.141c0.033,0.038,0.09,0.041,0.141,0.042
				c0.573,0.003,1.146,0.005,1.719,0.008c0.399-3.122,0.704-6.257,0.934-9.396c1.206,0.162,2.417,0.191,3.618-0.03
				c-1.861-3.916-2.818-8.258-2.776-12.594L522.664,197.323z"/>
		</g>
		<g>
			<path fill="#9B2D81" d="M550.27,197.925c-1.811,5.953-4.094,11.762-6.822,17.354c-0.123,0.252-0.249,0.541-0.147,0.802
				c0.124,0.316,0.51,0.422,0.844,0.487c1.317,0.254,2.647,0.504,3.98,0.684c-0.045,5.617-0.09,11.235-0.134,16.852
				c-0.005,0.679,0.001,1.4,0.364,1.973c0.364,0.573,1.226,0.881,1.738,0.436c-0.181-6.368-0.361-12.736-0.542-19.104
				c1.552,0.136,3.104,0.142,4.641-0.111c-1.223-6.762-2.435-13.526-3.637-20.291L550.27,197.925z"/>
		</g>
	</g>
	<g>
		<g>
			<path fill="#9B2D81" d="M179.945,278.368c-1.563,6.903-3.006,13.643-5.462,20.28c0.659,0.536,1.613,0.423,2.45,0.282
				c0.508-0.086,1.016-0.171,1.524-0.257c0.174,4.343,0.347,8.685,0.521,13.028c0.006,0.157,0.024,0.337,0.15,0.43
				c0.124,0.092,0.297,0.058,0.447,0.021c0.329-0.082,0.658-0.164,0.987-0.246c0.122-0.03,0.251-0.065,0.335-0.159
				c0.12-0.134,0.106-0.337,0.084-0.516c-0.512-4.26-0.801-8.545-0.883-12.835c0.962-0.162,1.923-0.324,2.885-0.486
				c0.241-0.041,0.512-0.1,0.64-0.308c0.098-0.159,0.084-0.36,0.066-0.546C183.065,290.723,181.809,284.452,179.945,278.368z"/>
		</g>
		<g>
			<path fill="#9B2D81" d="M165.524,282.08c-1.443-5.96-2.679-11.97-3.705-18.016c-3.901,12.158-9.235,23.041-14.6,34.628
				c3.543,0.038,7.087-0.064,10.623-0.29c-0.119,5.801-0.238,11.602-0.357,17.403c1.09-0.284,2.181-0.568,3.271-0.852
				c0.629-5.585,0.879-11.211,0.765-16.83c3.079-0.277,6.148-0.65,9.203-1.126C168.184,292.366,166.767,287.214,165.524,282.08z"/>
		</g>
		<g>
			<path fill="#9B2D81" d="M108.107,317.844c-0.516-2.132-0.958-4.282-1.326-6.445c-1.396,4.349-3.304,8.242-5.223,12.388
				c1.267,0.014,2.535-0.023,3.8-0.104c-0.043,2.075-0.085,9.822-0.128,11.898c0.39-0.102,0.78-0.203,1.17-0.305
				c0.225-1.998,0.314-9.682,0.273-11.693c1.101-0.099,2.2-0.232,3.292-0.403C109.058,321.524,108.551,319.681,108.107,317.844z"/>
		</g>
		<g>
			<path fill="#9B2D81" d="M125.567,289.934l-0.94,1.108c-3.62,5.782-6.38,12.102-8.162,18.688l1.498-0.622
				c1.238,0.224,2.496,0.32,3.754,0.31c-0.423,4.331-0.846,8.663-1.269,12.994c-0.227,2.327-0.454,4.654-0.788,6.968
				c0.812-0.041,1.624-0.082,2.436-0.123c0.636-6.662,1.272-13.323,1.908-19.985c1.742-0.21,3.458-0.633,5.088-1.283
				c0.133-0.053,0.276-0.117,0.343-0.244c0.068-0.129,0.038-0.285,0.006-0.427C128.149,301.524,126.858,295.729,125.567,289.934z"/>
		</g>
		<g>
			<path fill="#9B2D81" d="M265.646,327.131c-0.908-1.657-1.415-3.5-1.86-5.336c-0.516-2.132-0.958-4.282-1.325-6.445
				c-1.396,4.349-3.304,8.242-5.223,12.388c1.267,0.014,2.535-0.023,3.8-0.104c-0.043,2.075-0.085,9.822-0.128,11.898
				c0.39-0.102,0.78-0.203,1.17-0.305c0.225-1.998,0.314-9.682,0.274-11.693C263.455,327.435,264.553,327.301,265.646,327.131z"/>
		</g>
		<g>
			<path fill="#9B2D81" d="M253.068,316.434c-1.291-5.794-2.582-11.589-3.874-17.384l-0.94,1.108
				c-3.62,5.782-6.38,12.102-8.162,18.688l1.498-0.622c1.238,0.225,2.496,0.32,3.754,0.31c-0.423,4.331-0.846,8.663-1.269,12.994
				c-0.227,2.327-0.455,4.654-0.788,6.968c0.812-0.041,1.624-0.082,2.436-0.123c0.636-6.662,1.272-13.323,1.908-19.985
				c1.742-0.21,3.458-0.633,5.088-1.283c0.133-0.053,0.276-0.117,0.343-0.244C253.13,316.732,253.1,316.576,253.068,316.434z"/>
		</g>
		<g>
			<path fill="#9B2D81" d="M205.733,292.686c-1.574,3.81-3.388,7.521-5.428,11.103c1.067,0.323,2.153,0.647,3.247,0.895
				c-0.366,3.171-0.732,6.342-1.099,9.514c-0.006,0.049-0.009,0.104,0.023,0.141c0.033,0.038,0.09,0.041,0.141,0.042
				c0.573,0.003,1.146,0.005,1.719,0.008c0.399-3.122,0.704-6.257,0.934-9.396c1.206,0.162,2.417,0.191,3.618-0.03
				c-1.861-3.916-2.818-8.258-2.776-12.594L205.733,292.686z"/>
		</g>
		<g>
			<path fill="#9B2D81" d="M232.3,284.809c-1.811,5.953-4.094,11.762-6.822,17.354c-0.123,0.252-0.249,0.541-0.147,0.802
				c0.124,0.316,0.51,0.422,0.844,0.487c1.317,0.254,2.647,0.504,3.98,0.684c-0.045,5.617-0.09,11.235-0.134,16.852
				c-0.005,0.679,0.001,1.4,0.364,1.973c0.364,0.573,1.226,0.881,1.738,0.436c-0.181-6.368-0.361-12.736-0.542-19.104
				c1.552,0.136,3.104,0.142,4.641-0.111c-1.223-6.762-2.435-13.526-3.637-20.291L232.3,284.809z"/>
		</g>
	</g>
</g>
<g id="Layer_4">
	<g>
		<g>
			<path fill="#591B7A" d="M662.806,305.938c-30.847,20.726-47.542,62.098-80.458,78.605c-2.714,1.361-5.648,2.554-8.615,2.185
				c-2.889-0.359-5.442-2.152-7.825-3.968c-11.254-8.577-21.577-18.897-34.106-25.018c-20.49-10.01-45.836-6.992-63.866,7.604
				c-6.618,5.358-12.249,12.091-19.04,17.185c-16.484,12.365-37.839,13.725-57.786,12.084c-19.947-1.641-39.974-5.849-59.809-3.017
				c-35.995,5.14-67.656,35.685-77.426,73.709c-5.707-2.041-11.686-3.397-16.974-6.493c-23.401-13.703-23.435-53.848-46.022-69.089
				c-23.805-16.063-56.449,5.469-82.325-6.172c-13.204-5.94-22.095-19.497-29.178-33.03c-3.662-6.998-7.244-14.43-13.249-19.12
				c-5.756-4.496-13.021-5.896-20.039-6.906c-15.427-2.221-30.53-3.119-46.086-2.734v182.238h720V293.772
				C700.373,290.176,679.764,294.544,662.806,305.938z"/>
		</g>
	</g>
</g>
<g id="Layer_5">
	<g opacity="0.56">
		<path fill="#FFFFFF" d="M391.405,129.083c-31.855,2.662-63.819,4.017-95.785,4.061c-4.003,0.005-8.989-0.674-10.271-4.465
			c-0.769-2.275,0.237-4.763,1.514-6.797c7.304-11.625,24.899-15.11,36.083-7.147c1.126-7.943,2.957-15.956,7.115-22.816
			c4.159-6.86,10.972-12.473,18.921-13.558c7.949-1.085,16.775,3.266,19.375,10.855c2.44,7.121-0.746,14.797-1.483,22.288
			c7.441-5.569,17.668-10.206,25.665-5.471c4.195,2.484,6.812,7.417,6.515,12.284c-0.297,4.867-3.494,9.445-7.96,11.401"/>
	</g>
	<g opacity="0.56">
		<path fill="#FFFFFF" d="M85.272,143.133c0.228-3.396,0.584-7.093,2.941-9.548c2.357-2.455,7.429-2.299,8.38,0.969
			c2.403-5.359,6.022-10.169,10.507-13.961c3.276-2.77,8.536-4.868,11.508-1.774c1.063,1.107,1.529,2.644,1.911,4.13
			c0.838,3.262,1.438,6.585,1.795,9.934c1.839-2.277,4.297-4.402,7.222-4.49c2.925-0.089,5.913,2.92,4.797,5.625
			c1.953-2.468,5.358-3.691,8.435-3.029c3.077,0.661,5.679,3.174,6.446,6.227c0.266,1.057,0.308,2.24-0.252,3.176
			c-0.612,1.023-1.796,1.533-2.91,1.959c-17.792,6.793-37.625,8.134-56.17,3.796"/>
	</g>
	<g opacity="0.56">
		<path fill="#FFFFFF" d="M344.342,221.653c-3.084,0.485-6.266,0.967-9.299,0.227c-3.033-0.74-5.914-3.02-6.368-6.109
			c-0.222-1.512,0.147-3.049,0.652-4.491c1.085-3.094,3.118-6.198,6.283-7.055c4.563-1.236,8.791,2.61,11.963,6.115
			c-0.324-8.258,3.519-16.575,10.017-21.681c1.711-1.345,3.781-2.521,5.941-2.261c2.408,0.29,4.266,2.3,5.39,4.449
			c2.591,4.953,2.364,10.845,2.073,16.426c0.114-3.203,3.21-6.104,6.383-5.654c3.173,0.45,5.32,4.541,3.61,7.251
			c2.197-2.2,4.948-4.583,7.997-3.981c3.014,0.595,4.691,3.844,5.391,6.836c0.641,2.736,0.836,5.575,0.575,8.373
			c-0.054,0.583-0.149,1.209-0.561,1.626c-0.401,0.406-1.007,0.514-1.571,0.599c-13.555,2.036-27.373,2.317-41,0.833"/>
	</g>
	<g opacity="0.56">
		<path fill="#FFFFFF" d="M437.968,159.561c-0.742-6.353,1.736-13.317,7.147-16.728c5.411-3.411,13.66-2.088,16.794,3.488
			c1.888-5.032,4.314-9.862,7.222-14.381c2.637-4.098,6.427-8.327,11.299-8.206c4.174,0.103,7.658,3.577,9.107,7.493
			c1.449,3.916,1.289,8.218,1.109,12.389c3.806-3.613,9.765-4.758,14.639-2.812c4.874,1.946,8.407,6.879,8.679,12.12
			C495.344,157.454,457.08,160.956,437.968,159.561"/>
	</g>
</g>
<g id="Layer_6">
	<g>
		<path fill="#2E1059" d="M231.752,334.702c-1.579-7.1-9.164-12.68-16.234-10.969c6.831-5.912,14.122-12.642,15.31-21.598
			c0.747-5.635-1.125-11.351-3.997-16.257c-11.582-19.781-38.829-26.607-60.527-19.216c-9.135,3.111-17.933,8.771-22.135,17.458
			c-4.202,8.687-2.341,20.662,5.842,25.776c-12.854-1.352-25.241,9.056-28.005,21.682s3.019,26.189,12.78,34.661
			c6.415,5.568,15.371,9.287,23.432,6.607l0.329-3.888c-0.961,8.021,8.095,13.705,16.127,14.57
			c8.921,0.961,18.16-1.384,25.542-6.485c3.244-2.241,6.263-5.206,7.245-9.025c0.982-3.819-0.783-8.528-4.545-9.71
			c7.225,0.84,14.914-0.373,20.814-4.627C229.631,349.428,233.331,341.802,231.752,334.702z"/>
	</g>
	<g>
		<path fill="#2E1059" d="M50.591,448.493c-1.029-6.18-1.867-12.541-0.58-18.672c1.287-6.131,5.085-12.072,10.927-14.335
			s13.589,0.366,15.581,6.305c1.375-5.676,5.365-10.662,10.602-13.248c5.237-2.585,11.622-2.721,16.964-0.361
			c5.929,2.619,10.6,9.621,8.007,15.562c9.287-4.413,21.158-2.666,28.78,4.236c7.622,6.902,10.535,18.541,7.063,28.22
			c-3.472,9.678-13.121,16.811-23.392,17.293"/>
	</g>
	<g>
		<path fill="#2E1059" d="M308.523,454.605c-4.835-8.38-3.942-20.393,3.685-26.344c7.627-5.951,21.304-2.195,23.056,7.319
			c0.921-15.184,14.047-28.688,29.199-30.038c2.647-0.236,5.404-0.123,7.82,0.983c4.2,1.923,6.621,6.571,7.146,11.16
			c0.525,4.589-0.529,9.196-1.576,13.695c3.927-6.052,12.788-8.243,19.083-4.717s9.058,12.224,5.95,18.735
			c3.092-5.705,11.311-7.401,16.973-4.229s8.553,10.14,7.945,16.601c-0.609,6.461-4.26,12.347-8.992,16.788"/>
	</g>
	<g>
		<path fill="#2E1059" d="M642.243,446.494c-3.106-3.175-5.538-7.006-7.092-11.167c-2.122-5.681-2.532-12.228,0.058-17.712
			c2.59-5.484,8.581-9.523,14.596-8.747c6.015,0.776,11.018,7.175,9.375,13.013c1.634-6.111,3.416-12.494,7.762-17.091
			s12.116-6.621,17.056-2.668c4.717,3.774,4.817,10.948,3.291,16.794c2.905-2.493,4.064-6.39,5.651-9.873
			c1.587-3.484,4.253-7.059,8.066-7.391c3.064-0.267,5.985,1.78,7.531,4.439c1.546,2.659,1.947,5.826,2.039,8.9
			c0.465,15.591-6.638,31.234-18.682,41.145"/>
	</g>
	<rect x="167.606" y="367.594" fill="#2E1059" width="12.712" height="68.241"/>
	<g>
		<path fill="#2E1059" d="M311.715,388.09c-9.089,1.744-13.765,3.467-22.022-0.714c-8.257-4.18-13.896-14.636-9.979-23.021
			c2.383-5.099,7.654-8.45,9.822-13.644c1.157-2.771,1.328-5.839,1.484-8.838c0.367-7.057,0.734-14.114,1.101-21.172
			c0.383-7.362,1.599-16.074,8.184-19.389c1.899-0.956,4.353-1.257,6.05,0.025c0.968,0.732,1.542,1.861,2.041,2.967
			c2.58,5.727,4.021,11.965,4.213,18.244c0.277,9.044-1.839,18.859,2.817,26.617c1.53,2.55,3.697,4.659,5.363,7.123
			c3.516,5.201,4.598,11.978,2.875,18.015S317.447,385.527,311.715,388.09"/>
	</g>
	<rect x="301.456" y="375.729" fill="#2E1059" width="4.348" height="78.991"/>
	<g>
		<path fill="#2E1059" d="M374.956,385.563c-5.742,0.454-11.343-2.827-14.786-7.445c-3.443-4.618-4.99-10.397-5.64-16.12
			c-1.655-14.567,2.237-29.697,10.715-41.657c1.845-2.603,4.465-5.309,7.637-4.96c3.418,0.376,5.361,4.027,6.526,7.263
			c4.206,11.683,6.079,24.201,5.476,36.604c-0.452,9.311-2.696,19.285-9.746,25.384"/>
	</g>
	<g>
		<path fill="#2E1059" d="M368.976,367.324c-0.585,30.625-0.655,61.259-0.21,91.886c1.675,0.6,3.564-0.601,4.355-2.195
			c0.791-1.594,0.765-3.454,0.722-5.233c-0.714-29.495-1.427-58.99-2.141-88.484"/>
	</g>
	<g>
		<path fill="#2E1059" d="M55.264,368.984c-8.657,5.323-20.413,4.137-28.763-1.657c-8.35-5.793-13.434-15.542-15.022-25.579
			c-1.22-7.718-0.472-15.917,3.217-22.806c3.63-6.779,9.777-11.811,15.946-16.401c-2.34-5.866-2.36-13.117,1.699-17.955
			c4.059-4.838,12.794-5.526,16.372-0.322c2.98,4.335,1.41,10.2-0.264,15.188c7.765,2.515,13.701,9.169,16.9,16.679
			c3.198,7.509,3.958,15.832,3.956,23.994c-0.002,6.218-0.464,12.601-3.066,18.248c-2.603,5.647-7.734,10.467-13.911,11.173"/>
	</g>
	<g>
		<path fill="#2E1059" d="M37.347,352.391c1.552,25.132,1.323,50.375-0.685,75.475c-0.205,2.568-0.405,5.276,0.704,7.6
			c1.11,2.325,4.041,3.991,6.326,2.803c5.743-29.3-0.725-59.832,3.91-89.328"/>
	</g>
	<g>
		<path fill="#2E1059" d="M544.866,365.538c-6.687,4.842-15.514,6.603-23.548,4.699c-5.576-1.322-11.081-4.766-12.929-10.19
			c-1.848-5.424,1.625-12.568,7.344-12.929c-6.156-0.754-12.197-3.943-15.424-9.239c-1.885-3.094-2.736-6.741-2.869-10.362
			c-0.477-12.931,8.937-25.56,21.465-28.797c12.528-3.237,26.881,3.252,32.727,14.796c-1.031-6.265,3.561-12.836,9.733-14.322
			c6.173-1.486,13.077,2.049,15.772,7.798c2.695,5.749,1.145,13.103-3.415,17.521c5.394,0.217,11.364,0.68,15.096,4.581
			c3.245,3.391,3.867,8.709,2.48,13.193c-1.387,4.484-4.494,8.242-7.934,11.436c-3.527,3.275-9.316,6.036-12.753,2.666
			c0.827,6.402-3.129,13.118-9.129,15.499c-6,2.381-13.484,0.205-17.272-5.022"/>
	</g>
	<g>
		<path fill="#2E1059" d="M541.074,351.658c0.116-0.77,0.233-1.54,0.349-2.31c-2.086,25.227-4.172,50.454-6.258,75.681
			c4.537-0.46,9.122-0.448,13.656,0.034c-2.814-23.514-4.277-47.189-4.38-70.871"/>
	</g>
	<g>
		<path fill="#2E1059" d="M640.757,379.983c-5.301,3.965-13.735,2.738-17.686-2.573c-1.539-2.069-2.412-4.568-2.903-7.1
			c-0.929-4.787-0.562-9.737,0.22-14.55c1.94-11.954,6.437-23.486,13.102-33.598c2.396,2.656,4.04,5.893,5.539,9.141
			c3.878,8.399,6.982,17.155,9.259,26.121c1.331,5.241,2.364,10.87,0.566,15.97c-1.798,5.1-7.41,9.225-12.549,7.542"/>
	</g>
	<g>
		<path fill="#2E1059" d="M634.74,368.5c-1.77,22.949-1.716,46.038,0.159,68.979c0.108,1.315,0.644,3.03,1.962,2.972
			c1.323-0.059,1.701-1.822,1.689-3.146c-0.222-24.22-1.421-48.43-3.591-72.554"/>
	</g>
	<g>
		<g>
			<path fill="#591B7A" d="M155.994,339.686l0.049,0.033c-0.619,0.095-1.173,0.462-1.67,0.855c-0.511,0.404-1.03,0.877-1.171,1.513
				c-0.148,0.666,0.176,1.375,0.692,1.822c0.515,0.447,1.193,0.664,1.867,0.767c1.134,0.173,2.375,0.022,3.272-0.694
				s1.31-2.088,0.714-3.068C159.027,339.731,157.377,339.64,155.994,339.686z"/>
		</g>
		<g>
			<path fill="#591B7A" d="M176.092,362.867c-0.201-0.155-0.45-0.257-0.703-0.283c-0.513-0.053-1.025,0.153-1.439,0.461
				c-1.121,0.834-1.559,2.472-1.004,3.754c0.555,1.283,2.049,2.084,3.425,1.837c1.376-0.247,2.498-1.517,2.573-2.913
				c0.046-0.856-0.288-1.738-0.936-2.299C177.486,362.974,176.768,362.772,176.092,362.867z"/>
		</g>
		<g>
			<g>
				<path fill="#591B7A" d="M528.994,351.203c-0.928,0.089-1.806,0.534-2.457,1.2c-0.183,0.104-0.359,0.225-0.52,0.357
					c-0.921,0.757-1.684,1.938-1.372,3.089c0.262,0.968,1.211,1.603,2.173,1.889c1.724,0.512,3.688,0.135,5.1-0.98
					c0.465-0.367,0.881-0.823,1.087-1.379c0.379-1.019-0.032-2.208-0.789-2.989C531.393,351.54,530.173,351.09,528.994,351.203z"/>
			</g>
			<g>
				<path fill="#591B7A" d="M549.322,331.631c-1.447-0.006-2.769,1.304-2.775,2.751c-0.006,1.447,1.304,2.769,2.751,2.775
					c1.447,0.006,2.769-1.304,2.775-2.751C552.079,332.96,550.768,331.638,549.322,331.631z"/>
			</g>
			<g>
				<path fill="#591B7A" d="M520.172,318.02c-0.845-0.642-2.044-0.694-3.03-0.303c-0.254,0.1-0.493,0.228-0.721,0.375
					c-0.515-0.293-1.201,0.11-1.641,0.55c-1.306,1.305-2.274,3.293-1.513,4.976c0.688,1.522,2.552,2.183,4.22,2.105
					c1.057-0.05,2.144-0.355,2.915-1.081c1.086-1.024,1.332-2.689,1.072-4.159C521.308,319.547,520.929,318.595,520.172,318.02z"/>
			</g>
			<g>
				<path fill="#591B7A" d="M535.307,314.261l0.133,0.835c-0.225-0.429-0.855-0.681-1.318-0.445c-0.612,0.312-0.8,1.159-0.543,1.796
					c0.257,0.637,0.847,1.082,1.466,1.381c0.362,0.175,0.77,0.313,1.163,0.226c0.812-0.18,1.129-1.262,0.816-2.033
					C536.71,315.25,535.991,314.734,535.307,314.261z"/>
			</g>
			<g>
				<path fill="#591B7A" d="M564.865,310.133c-0.411,0.068-0.822,0.28-1.087,0.599c-0.847,1.018-0.624,2.741,0.454,3.509
					c1.078,0.768,2.779,0.418,3.465-0.715c0.328-0.542,0.431-1.191,0.456-1.824c0.023-0.578-0.022-1.188-0.333-1.676
					C567.182,309.024,565.431,309.089,564.865,310.133z"/>
			</g>
			<g>
				<path fill="#591B7A" d="M581.106,342.533c-0.3-0.888-1.368-1.226-2.298-1.339l0.165,1.019c-0.15-0.272-0.541-0.442-0.866-0.357
					c-0.443,0.115-0.75,0.507-1.02,0.877c-0.234,0.32-0.475,0.671-0.474,1.067c0.003,0.892,1.148,1.29,2.037,1.22
					c0.671-0.052,1.357-0.238,1.867-0.677C581.027,343.904,581.321,343.171,581.106,342.533z"/>
			</g>
			<g>
				<path fill="#591B7A" d="M561.75,357.532c-0.495-0.255-1.031-0.419-1.58-0.511c-0.203-0.255-0.507-0.446-0.83-0.503
					c-0.626-0.111-1.258,0.146-1.809,0.463c-0.255,0.147-0.502,0.324-0.735,0.518c-0.096,0.047-0.196,0.087-0.289,0.141l0.12,0.007
					c-0.74,0.679-1.258,1.58-1.061,2.533c0.192,0.926,1.037,1.615,1.951,1.857c0.914,0.243,1.885,0.112,2.806-0.106
					c0.726-0.171,1.46-0.406,2.034-0.882c0.574-0.476,0.958-1.243,0.798-1.971C563,358.375,562.39,357.862,561.75,357.532z"/>
			</g>
		</g>
		<g>
			<path fill="#591B7A" d="M204.603,336.291c-0.656-0.015-1.322,0.185-1.836,0.596c-0.974,0.779-1.364,2.173-1.043,3.378
				c0.321,1.205,1.289,2.19,2.451,2.645c0.671,0.263,1.443,0.357,2.106,0.074c0.742-0.317,1.221-1.043,1.573-1.769
				c0.714-1.47,0.963-3.507-0.326-4.512C206.721,336.075,205.641,336.109,204.603,336.291z"/>
		</g>
		<g>
			<path fill="#591B7A" d="M182.115,302.771l-0.686-0.02c-0.42-0.646-1.464-0.264-1.944,0.338c-0.861,1.079-1,2.697-0.29,3.881
				c0.71,1.184,2.243,1.824,3.571,1.448c1.328-0.376,2.306-1.767,2.162-3.14C184.783,303.905,183.495,302.734,182.115,302.771z"/>
		</g>
		<g>
			<path fill="#591B7A" d="M213.808,293.382c-0.969-0.767-2.35-0.943-3.502-0.51c-0.49-0.128-1.034,0.01-1.457,0.302
				c-1.15,0.795-1.424,2.511-0.797,3.76c0.628,1.249,1.976,2.027,3.358,2.239c0.956,0.147,2.013,0.026,2.746-0.605
				c0.376-0.324,0.642-0.763,0.805-1.231C215.441,295.953,214.956,294.291,213.808,293.382z"/>
		</g>
		<g>
			<path fill="#591B7A" d="M160.427,285.06c-1.176-0.78-3.003-0.23-3.551,1.07l0.008,0.005c-0.364,0.037-0.728,0.18-0.992,0.422
				c-0.765,0.704-0.973,1.896-0.63,2.877c0.343,0.981,1.168,1.747,2.117,2.172c1.323,0.593,3.069,0.481,4-0.63
				c0.824-0.984,0.795-2.434,0.451-3.671C161.59,286.436,161.179,285.559,160.427,285.06z"/>
		</g>
		<g>
			<path fill="#591B7A" d="M178.103,333.229l-0.066,0.147c-0.843-0.667-2.263-0.211-2.668,0.784
				c-0.405,0.995,0.174,2.235,1.152,2.682c0.977,0.447,2.203,0.147,2.971-0.604c0.363-0.355,0.642-0.819,0.683-1.326
				C180.257,333.87,179.106,332.934,178.103,333.229z"/>
		</g>
		<g>
			<path fill="#591B7A" d="M138.757,336.728c-0.711-1.016-2.389-1.14-3.242-0.24l0.326-0.796c-1.216,0.004-2.152,1.124-2.556,2.271
				c-0.462,1.311-0.442,2.845,0.308,4.016c0.749,1.171,2.312,1.844,3.609,1.345c0.876-0.337,1.517-1.138,1.831-2.023
				s0.334-1.847,0.251-2.782C139.228,337.892,139.118,337.244,138.757,336.728z"/>
		</g>
		<g>
			<g>
				<path fill="#591B7A" d="M24.689,345.189c-1.025-0.473-2.372-0.075-2.975,0.88c-0.603,0.954-0.386,2.341,0.481,3.065
					c0.538,0.449,1.25,0.636,1.949,0.694c0.661,0.055,1.353-0.001,1.932-0.325c0.874-0.488,1.339-1.517,1.395-2.517
					c0.05-0.89-0.209-1.838-0.873-2.433c-0.664-0.595-1.773-0.717-2.441-0.126"/>
			</g>
			<g>
				<path fill="#591B7A" d="M42.201,333.493c-0.79-0.522-2-0.049-2.32,0.842c-0.32,0.891,0.214,1.962,1.08,2.345
					c0.866,0.383,1.942,0.117,2.62-0.544c0.296-0.288,0.527-0.649,0.632-1.049c0.317-1.209-0.817-2.558-2.063-2.453"/>
			</g>
			<g>
				<path fill="#591B7A" d="M50.761,317.976c-0.134-0.394-0.58-0.627-0.995-0.599c-0.416,0.027-0.792,0.271-1.072,0.579
					c-1.079,1.188-0.725,3.225,0.453,4.315c1.068,0.987,2.683,1.317,4.071,0.883c1.388-0.434,2.513-1.592,2.964-2.975
					c0.365-1.118,0.277-2.433-0.45-3.357c-0.966-1.228-2.814-1.458-4.286-0.934s-2.644,1.643-3.723,2.771"/>
			</g>
			<g>
				<path fill="#591B7A" d="M26.768,319.372c-0.646-0.212-1.298,0.416-1.46,1.076c-0.318,1.298,0.797,2.744,2.133,2.767
					c1.337,0.022,2.499-1.385,2.225-2.694c-0.275-1.308-1.905-2.13-3.12-1.572"/>
			</g>
			<g>
				<path fill="#591B7A" d="M52.986,355.172c-0.36-0.796-1.319-1.269-2.17-1.07s-1.501,1.047-1.471,1.921
					c0.03,0.87,0.645,1.613,1.334,2.145c0.432,0.334,0.92,0.621,1.46,0.708c1.03,0.166,2.113-0.498,2.498-1.468
					s0.085-2.152-0.667-2.875c-0.752-0.724-1.896-0.984-2.909-0.73"/>
			</g>
			<g>
				<path fill="#591B7A" d="M39.354,292.166c-1,0.156-1.762,1.198-1.642,2.204c0.12,1.005,1.072,1.83,2.085,1.842
					c1.013,0.011,1.969-0.763,2.204-1.748c0.178-0.747-0.067-1.611-0.691-2.059c-0.624-0.447-1.61-0.354-2.054,0.273"/>
			</g>
		</g>
	</g>
</g>
<g id="Layer_7">
	<g>
		<path fill="#1B063D" d="M720,503.999l0.197-71.226c-15.811-2.854-32.123,0.999-48.138,3.137
			c-17.113,2.285-35.996,2.094-49.661-9.111c-5.203-4.266-9.33-9.908-14.678-13.966c-16.138-12.243-38.432-7.165-57.046,0.07
			c-39.028,15.17-76.076,37.807-117.193,44.155c-19.818,3.06-39.97,2.21-59.964,1.018c-34.305-2.046-68.604-5.086-102.495-11.106
			c-39.649-7.042-79.43-18.197-119.445-14.134c-36.252,3.68-75.146,19.266-107.228,0.916C29.751,425.404,15.941,410.038,0,414.852
			c-0.022,0.007,0.022,0.016,0,0.023v89.124H720z"/>
	</g>
</g>
</svg>
